<svg xmlns="http://www.w3.org/2000/svg" width="96" height="96" viewBox="0 0 96 96">
  <defs>
    <linearGradient id="scanGradient" x1="0%" y1="0%" x2="100%" y2="100%">
      <stop offset="0%" style="stop-color:#06B6D4"/>
      <stop offset="100%" style="stop-color:#0891B2"/>
    </linearGradient>
  </defs>
  <rect width="96" height="96" rx="20" fill="url(#scanGradient)"/>
  <!-- Barcode scanner frame -->
  <g fill="none" stroke="white" stroke-width="3" stroke-linecap="round" stroke-linejoin="round">
    <!-- Top left corner -->
    <path d="M20 32 L20 20 L32 20"/>
    <!-- Top right corner -->
    <path d="M64 20 L76 20 L76 32"/>
    <!-- Bottom left corner -->
    <path d="M20 64 L20 76 L32 76"/>
    <!-- Bottom right corner -->
    <path d="M64 76 L76 76 L76 64"/>
    <!-- Barcode lines -->
    <line x1="30" y1="36" x2="30" y2="60"/>
    <line x1="38" y1="36" x2="38" y2="60"/>
    <line x1="44" y1="36" x2="44" y2="60"/>
    <line x1="52" y1="36" x2="52" y2="60"/>
    <line x1="58" y1="36" x2="58" y2="60"/>
    <line x1="66" y1="36" x2="66" y2="60"/>
    <!-- Scan line -->
    <line x1="24" y1="48" x2="72" y2="48" stroke="#22D3EE" stroke-width="2"/>
  </g>
</svg>
